<svg preserveAspectRatio="none" width="41.1155" height="47.9703" overflow="visible" style="display: block;" viewBox="0 0 41.1155 47.9703" fill="none" xmlns="http://www.w3.org/2000/svg">
<g id="Group 1321314158" opacity="0.5">
<path id="Vector" d="M40.9309 27.6352C40.8659 27.6723 40.4662 27.8638 40.3552 27.9067C39.5401 28.2703 38.8087 28.2102 37.9932 27.7305C37.4073 27.3861 36.8636 26.6281 36.6508 26.3619C36.4828 26.1519 36.2795 25.8769 35.9877 25.616C35.4461 25.1289 34.7134 24.8081 33.4454 24.8316C33.3434 24.8334 33.2427 24.8101 33.1526 24.7624C31.8715 24.0849 29.6645 23.2588 27.5552 23.3651C27.1371 23.3933 27.077 23.0893 26.9391 22.749C26.5554 21.7238 26.2759 21.2491 26.0155 20.8775C25.6841 20.4047 25.5385 20.401 25.2637 20.3238C24.9578 20.2379 24.6262 20.2054 24.4227 19.8508C24.3978 19.8073 24.298 19.6196 24.4111 19.4876C24.6912 19.1611 25.468 18.7117 24.3011 18.0529C23.5897 17.6512 23.9065 17.3929 24.0248 17.3319C24.1885 17.2475 24.4708 17.1808 24.8084 17.2481C25.1461 17.3154 25.5389 17.5166 25.9238 17.9675C26.3044 18.4133 27.589 20.4934 28.3697 22.0727C28.3801 22.094 28.3971 22.2077 28.5408 22.2216C28.7585 22.2428 29.1315 22.2434 29.2078 22.2499C29.3281 22.2601 29.3296 22.1631 29.3178 22.1237C28.211 18.4509 26.9381 13.8799 24.7288 10.6996C24.6839 10.6082 24.7223 10.5127 24.8617 10.5265C26.8388 10.7289 27.4124 13.5428 28.5711 15.3911C30.0595 17.7672 30.9323 16.8361 31.0735 15.2334C31.1721 14.113 30.8767 12.6872 30.0961 11.8877C29.9104 11.6618 29.5818 11.3756 29.4443 11.2065C29.395 11.1457 29.3877 11.0433 29.5189 11.0107C29.5731 10.9971 29.6505 10.9917 29.7559 10.9956C30.6697 11.0658 31.9391 11.8053 32.4725 12.6287C33.567 14.3185 33.4854 15.2268 33.3353 15.8256C33.0787 16.8501 32.6 17.4389 33.1935 19.0587C34.3682 22.2651 34.061 21.5962 33.3924 23.6129C33.335 23.7662 33.4291 23.8805 33.5613 23.8683C35.0996 23.7272 35.5694 24.0755 35.9016 24.2535C35.9352 24.2715 35.9642 24.2991 35.9877 24.2939C36.0467 24.2731 36.0678 24.1987 36.078 24.0984C36.2042 23.2331 36.024 22.8676 35.8266 22.3578C35.7109 22.0583 35.5797 21.7208 35.5383 21.3919C35.4712 20.9698 35.5476 20.7322 35.6747 20.4164C35.8912 19.878 36.0204 19.4609 35.8444 18.6506C35.4554 16.9408 34.054 14.1254 33.1589 12.5038C33.0849 12.3638 32.4717 11.2059 32.3755 11.0364C32.3098 10.9206 32.3377 10.7796 32.3866 10.6699C32.4272 10.5789 32.4946 10.3965 32.4946 10.3965C32.7083 9.85162 32.8217 9.43551 32.8859 8.95994C33.0933 7.42652 32.6914 6.33569 31.5823 5.42307C30.553 4.57611 28.7196 4.20116 26.2783 4.33871L25.7616 4.36804C23.4623 4.49929 20.8564 4.64805 18.8954 4.4859C16.997 4.32898 15.8883 4.02865 15.5056 3.56767C15.3815 3.41798 15.3334 3.25227 15.3547 3.04581C15.3972 2.63319 15.6471 2.22276 16.0401 1.91987C16.38 1.65781 16.782 1.51683 17.0666 1.56138C17.5774 1.58223 18.1376 1.86976 18.7862 2.20271C19.3672 2.50106 20.0258 2.83913 20.7917 3.05928C21.4393 3.24547 22.0803 3.32799 22.6959 3.30451C23.2769 3.28234 23.8459 3.16075 24.3872 2.94288C24.6161 2.85069 24.7806 2.74504 24.852 2.68264C24.889 2.65038 24.9028 2.58607 24.8581 2.52594C24.8315 2.48979 24.7979 2.49001 24.6792 2.48994C23.864 2.48979 23.1381 2.3614 22.6771 2.25334C22.1673 2.12457 22.1235 2.00093 22.1283 1.95374C22.1394 1.84452 22.4081 1.74062 22.7151 1.72687C24.2193 1.65927 25.3712 1.7407 26.1334 1.79433C26.3932 1.81269 26.5984 1.82718 26.7466 1.83017C26.8983 1.83325 27.0979 1.82747 27.1061 1.82652C27.1515 1.82213 27.1647 1.79315 27.1682 1.78093C27.1767 1.7519 27.1635 1.71743 27.1465 1.70397C26.6162 1.2661 24.8933 0.605246 22.9279 0.257153C19.7657 -0.302968 17.6473 0.156625 16.4272 0.641099C16.1843 0.737521 15.559 1.00844 15.0029 1.43935C14.3901 1.91423 14.0481 2.43177 13.9864 2.97726C13.9041 3.70747 14.4339 4.65082 17.4268 4.99776C20.5957 5.36518 23.5562 5.31283 26.168 5.26706C26.4411 5.2622 26.7089 5.25756 26.971 5.25345C28.6255 5.22937 30.0258 5.62768 30.6265 6.29732C31.3184 7.06867 31.3596 8.10132 31.1846 8.75114C31.1341 8.9384 31.0314 9.2205 30.9082 9.39901C30.7183 9.65613 30.5098 9.73443 30.1268 9.63332C28.9042 9.31032 26.7231 8.59169 25.6656 8.23481C24.7238 7.9169 23.98 7.66576 23.3492 7.5111C21.4765 7.05214 20.8918 7.35607 19.6347 8.1506C19.3316 8.34198 19.0235 8.55183 18.6668 8.79466C18.1508 9.14601 17.5658 9.5444 16.7878 10.0301C16.3185 10.323 15.7034 10.6616 15.0521 11.0199C14.3898 11.3844 13.7049 11.7612 13.0342 12.1632C10.8827 13.4261 10.5394 15.1194 10.142 17.0802C9.85986 18.4714 9.54015 20.0483 8.47759 21.6451C8.36114 21.8204 7.44007 22.9375 7.24413 23.2546C6.51631 24.4247 6.12525 25.4344 6.27946 27.1322C6.39478 28.4014 5.9605 29.5063 5.54072 30.5748C5.21016 31.4156 4.89816 32.2099 4.84663 33.0605C4.80774 33.5864 4.82666 34.0779 4.84506 34.5533C4.87557 35.342 4.88731 36.128 4.64665 36.8089C4.46185 37.3315 3.99316 37.8461 3.81136 38.3518C3.57758 39.002 3.41387 39.9271 3.41387 40.7767C3.39914 41.4924 2.8674 42.0186 2.30464 42.5758C1.80859 43.0667 1.28951 43.5824 1.10069 44.25C1.07552 44.339 1.05877 44.4066 1.02592 44.4596C0.976899 44.5386 0.903519 44.5892 0.805122 44.659C0.614828 44.7943 0.38474 44.972 0.13336 45.4776C-0.0788017 45.9043 -0.0178582 46.6653 0.176235 47.0352C0.206157 47.0923 0.289784 47.2267 0.418394 47.2414C0.505528 47.2515 0.593102 47.2051 0.679653 47.1046C0.679653 47.1046 1.2293 46.4686 1.44352 46.2778C1.51865 46.2128 1.60813 46.2247 1.65927 46.263C1.71963 46.3084 1.73338 46.3841 1.69607 46.4657C1.67427 46.5131 1.34293 47.1031 1.14934 47.6005L1.1448 47.6128C1.11847 47.6833 1.08584 47.7711 1.13281 47.8438C1.17853 47.9145 1.28615 47.9532 1.47219 47.9656C1.55421 47.9687 1.6333 47.9703 1.70982 47.9703C2.72838 47.9703 3.264 47.6997 3.53936 47.4615C3.64683 47.3466 3.66822 47.2969 3.70359 47.2144C3.71294 47.1929 3.72326 47.1686 3.73747 47.1379C3.94119 46.5916 4.07782 45.96 4.09398 45.4886C4.09398 45.2889 4.15066 45.2321 4.28797 45.0948C4.82419 44.5537 4.82472 43.8392 4.82531 43.1478C4.82584 42.5125 4.82629 41.8555 5.24404 41.3376C6.38319 40.063 6.97513 38.5728 7.54769 37.132C8.13813 35.6454 8.74876 34.1083 9.96075 32.8264C10.2661 32.5127 10.5655 32.3418 10.763 32.3736C10.8595 32.3882 10.936 32.4501 10.9907 32.5584C11.2501 33.0381 11.1721 33.6834 11.0966 34.3076C11.0112 35.0131 10.9307 35.6795 11.3045 36.1151C11.5542 36.4387 11.6216 36.7795 11.4987 37.1026C11.3391 37.6128 10.8532 39.1655 9.69474 39.8527C9.66677 39.8692 9.36164 40.0866 9.26621 40.179C9.21633 40.2274 9.17991 40.2923 9.1378 40.3676C9.03632 40.5487 8.91015 40.774 8.51199 40.8917C8.07598 41.0015 7.6657 41.2662 7.44164 41.583C6.82892 42.4484 6.85524 43.52 6.91283 43.8273C6.93519 43.9464 6.97535 44.103 7.0894 44.2584C7.15895 44.3535 7.23972 44.41 7.32296 44.422C7.39139 44.4318 7.45974 44.412 7.52443 44.3628C7.59189 44.3114 7.67154 44.2193 7.77235 44.1024C7.9306 43.9194 8.12744 43.6915 8.37558 43.5092C8.45508 43.4509 8.53338 43.4644 8.57989 43.4969C8.62349 43.5273 8.64346 43.5756 8.63082 43.6201C8.60771 43.7009 8.53382 43.8174 8.43989 43.9649C8.32091 44.1524 8.17276 44.3856 8.05594 44.6606C8.02692 44.7218 8.02326 44.7784 8.04487 44.8285C8.07845 44.9065 8.16191 44.9389 8.18697 44.947C8.92429 45.1822 10.0257 44.9029 10.6421 44.3238C10.9511 44.0332 11.1015 43.6482 11.1015 43.1467C11.1015 43.0195 11.162 42.8219 11.2937 42.6903C11.728 42.3185 11.9078 41.7383 12.0981 41.1238C12.1434 40.9779 12.1902 40.8269 12.2408 40.6779C12.4374 40.0991 12.6965 39.6017 13.3224 39.0542C14.1347 38.2951 14.5016 37.5788 14.7332 37.1375C14.9691 36.6626 15.0207 36.3977 15.193 36.1208C15.5319 35.5862 16.6761 35.4853 17.0987 35.7348C17.274 35.8384 17.313 35.9816 17.2148 36.1608C17.1507 36.277 16.5472 37.2536 16.2632 37.921C16.1238 38.2485 15.8086 38.3708 15.621 38.4806C14.4879 39.143 14.2812 40.3905 14.2483 40.9018C14.238 41.0614 14.2556 41.2741 14.336 41.3927C14.3825 41.4613 14.4477 41.5056 14.5194 41.5172C14.5902 41.5287 14.6627 41.5081 14.7291 41.4574C14.7952 41.407 15.4087 40.7877 15.4822 40.7233C15.5836 40.6344 15.6728 40.6493 15.718 40.6894C15.7662 40.7319 15.7864 40.8164 15.7233 40.9097C15.6379 41.036 15.2143 41.674 15.2639 41.8137C15.348 42.05 15.589 42.0454 15.8305 42.0476C17.7746 41.8827 18.4619 40.4991 18.4619 40.4991C18.509 40.4185 18.5674 40.3122 18.5365 40.0243C18.4809 39.5053 18.3584 37.7065 19.3984 36.5865C19.7077 36.2432 19.8892 36.4751 19.9594 36.6284C20.0853 36.9037 20.2714 37.3805 20.3772 37.6197C20.6019 38.1271 20.7555 38.5018 21.0143 39.0041C21.4512 39.8515 22.1076 39.9688 22.92 39.8667C23.9704 39.7347 24.6947 39.8192 25.4006 39.8886C26.0001 39.9385 26.3314 39.9788 26.7719 39.576C27.0121 39.3565 27.4726 38.9544 27.7821 38.517C27.978 38.2402 28.0387 38.065 27.9893 37.6344C27.8438 35.4723 28.9683 33.5939 30.9951 32.6106C31.2992 32.4875 31.637 32.5252 31.8434 32.8025C32.2981 33.4771 33.3557 35.2039 33.3557 36.6695C33.3557 36.8079 33.3012 36.9603 33.238 37.1367C33.0947 37.5374 32.9164 38.0357 33.2478 38.7156C33.2684 39.3041 33.0505 39.7637 32.8582 40.1692C32.5843 40.7466 32.3681 41.2026 33.1171 41.6517C33.3289 41.7784 33.6036 41.8922 33.9568 41.9992C33.9776 42.0055 33.9982 42.0086 34.0178 42.0086C34.0483 42.0086 34.0764 42.0011 34.0991 41.9863C34.125 41.9694 34.1411 41.9449 34.1444 41.9174C34.165 41.748 34.1851 41.1597 34.2168 41.0209C34.2296 40.9656 34.2581 40.8989 34.322 40.8951C34.3814 40.8917 34.4407 40.9401 34.4575 40.9872C34.5172 41.1286 34.6696 41.704 34.7116 41.7953C34.7477 41.8739 34.7904 41.9273 34.8478 41.9441C35.1483 42.0307 35.5586 41.5143 35.7121 41.2484C35.9769 40.7005 35.8683 39.8862 35.4365 39.1767C35.373 39.0404 35.364 38.9857 35.3632 38.8617C35.5229 38.2159 35.4067 37.8888 35.2836 37.5426C35.2126 37.3428 35.141 37.1361 35.1088 36.8528C34.9925 35.8358 35.6149 32.6169 35.6734 32.2862C35.7792 31.6875 35.8669 31.2604 35.9049 30.8206C35.9416 30.3952 35.7673 29.8968 35.4714 29.5804C35.2001 29.2906 34.8729 29.025 34.5568 28.7681C34.2779 28.5415 34.0144 28.3275 33.799 28.1069C33.4505 27.7499 33.3395 27.2291 33.3427 27.0821C33.3439 27.0423 33.3512 27.0168 33.3652 27.0042C33.3761 26.9943 33.3938 26.9904 33.4195 26.9922C33.8995 27.0267 34.2836 27.3449 34.77 27.7476C35.2052 28.108 35.6986 28.5167 36.3897 28.8232C37.7551 29.4289 39.0512 29.3394 40.3531 28.5496C40.9065 28.1571 41.0775 27.8205 41.1051 27.7738C41.1397 27.715 41.0894 27.5446 40.9309 27.6352ZM10.6732 22.2342C10.7524 21.6045 11.2173 20.9335 11.4213 20.147C11.7119 19.259 11.7923 17.7073 11.9502 16.4772C12.029 15.8641 12.2634 15.6046 12.7061 15.5502C12.9984 15.524 13.3031 15.7783 13.4602 16.6445C14.0048 20.1915 15.0701 20.6822 15.6889 21.6217C15.7001 21.6386 15.7108 21.6563 15.7204 21.6742C15.8788 21.9687 15.9296 22.243 15.681 22.4419C15.5351 22.5586 15.0501 22.733 14.2252 22.2356C13.2354 21.6388 13.086 20.996 11.445 22.3092C11.445 22.3092 11.2253 22.4798 11.0148 22.5267C10.8366 22.5664 10.64 22.4972 10.6732 22.2342ZM19.2644 35.2466C19.2054 35.2834 19.139 35.2582 19.0427 35.1968C18.3909 34.78 16.5842 34.4513 15.0593 35.0623C13.4903 35.691 12.0534 36.5788 11.9571 35.0271C11.9381 33.6519 12.2311 33.0529 11.7529 32.2345C11.7529 32.2345 11.7324 32.2069 11.7114 32.1734C11.6702 32.1084 11.7201 32.0941 11.7357 32.0928C13.9395 31.9205 14.5278 31.2318 14.6652 30.9908C14.6953 30.9379 14.6557 30.8809 14.5996 30.8746C14.0934 30.8186 11.5692 30.7428 10.5542 30.8896C8.7688 31.1477 7.5696 33.8367 7.33769 34.0908C7.06981 34.3844 6.73199 34.1597 6.73199 33.8921C6.73199 33.4435 6.99689 31.2658 7.17279 30.5107C7.45129 29.3155 7.8351 28.4275 9.00102 28.2481C9.81813 28.1224 11.8232 27.9101 11.6853 27.3673C11.5708 26.9186 11.5138 26.5675 11.5127 26.369C11.5112 26.1039 11.6468 26.0509 11.9153 26.1105C12.1138 26.1545 12.3798 26.2724 12.7207 26.3527C15.2433 26.9462 16.5357 26.4734 18.039 25.8054C18.0815 25.7865 18.6407 25.535 18.6747 25.516C18.9457 25.3651 19.286 25.6377 19.1353 25.9601C19.0555 26.1308 18.9474 26.2098 18.7159 26.4327C18.2195 26.9108 16.3673 28.429 17.4831 30.9957C18.3531 32.997 18.6061 33.515 19.2234 34.88C19.3233 35.101 19.3379 35.2009 19.2644 35.2466ZM23.954 38.7094C23.831 38.9007 23.6414 39.0366 23.2728 39.0366C22.8197 39.0366 22.499 38.9008 22.3067 38.6959C21.9122 38.2753 21.8631 37.6997 21.9597 37.3226C22.0208 37.0839 22.1642 36.9269 22.3179 36.8814C22.3853 36.859 22.4217 36.864 22.4551 36.9075C22.5235 37.0172 22.7685 37.4051 22.8249 37.4857C22.891 37.5799 23.0108 37.6631 23.1084 37.7021C23.2926 37.7758 23.5278 37.8398 23.6521 37.8963C24.0325 38.0606 24.1202 38.451 23.954 38.7094ZM31.2268 31.6325C31.1789 31.7102 31.1362 31.7227 31.0719 31.752C28.7869 32.6165 26.9705 34.9492 27.3 37.752C27.3065 37.8984 27.2609 38.1036 27.123 38.2416C27.123 38.2416 26.6434 38.7288 26.3415 38.9364C26.2384 39.0073 26.1222 39.0652 25.8525 39.0478C25.4299 39.0208 24.8347 38.9833 24.8347 38.9833C24.6749 38.9566 24.7433 38.8178 24.7554 38.7874C24.7668 38.7584 24.7779 38.7247 24.7866 38.6855C24.8731 38.2649 24.8113 37.6758 24.2202 37.4552C24.1353 37.4074 24.1886 37.3294 24.1988 37.304C24.4526 36.6791 24.77 35.9057 25.0246 34.8213C25.1785 34.1657 25.084 33.7702 24.8541 33.2988C24.8032 33.1944 24.7366 33.0979 24.6609 33.0101L24.3014 32.5335C24.2011 32.4172 24.2274 32.2948 24.372 32.2432L24.8786 32.1141C25.0023 32.0699 24.9904 31.8824 24.8713 31.8524L24.6099 31.7686C24.3625 31.6668 24.2118 31.4693 24.1008 31.3168C24.0825 31.2918 24.0506 31.2412 24.0202 31.1863C23.9646 31.0857 23.9243 30.9775 23.9011 30.8649L23.8707 30.717C23.8673 30.6417 23.7488 30.6408 23.697 30.6927C23.2973 31.094 23.1737 31.7103 23.4672 32.2001C23.8784 32.8862 23.8618 32.8186 24.2281 33.3375C24.3491 33.5089 24.4215 33.6484 24.4616 33.8178C24.5169 34.0519 24.5011 34.6454 24.3443 35.069L23.9285 36.3319C23.6775 36.8968 23.3976 36.7606 23.2386 36.6549C23.0337 36.5188 22.8429 36.1658 22.7394 35.7914C22.7394 35.7914 22.4535 34.7371 22.4633 33.3358C22.4443 33.1665 22.329 32.8897 21.9613 33.132L20.9832 33.9437C20.845 34.0172 20.6054 33.977 20.6539 33.6588C20.6539 33.6588 21.3569 30.5228 22.114 28.7561C22.6824 27.3152 22.0497 26.5029 21.2954 25.6108C20.0632 24.0383 19.7872 21.9232 22.6564 23.0819C23.4268 23.4341 23.7022 22.9775 24.6525 22.8951C25.3342 22.8362 25.5583 23.112 25.6166 23.2288C25.6686 23.3331 25.6866 23.4485 25.6926 23.5089C25.6953 23.5352 25.6866 23.5525 25.6578 23.553C24.0492 23.6444 22.1296 24.9808 23.6121 27.0777C25.0679 29.132 29.0742 29.8228 30.8634 27.8641C30.887 27.8378 30.893 27.7788 30.8571 27.749C30.8386 27.7336 30.807 27.7194 30.7652 27.7352C30.374 27.8835 30.0139 27.9953 29.6526 28.0548C28.7978 28.1954 26.987 28.0928 26.131 27.1159C25.6412 26.5571 25.6543 25.9118 26.4822 25.8132C26.9431 25.7762 27.1687 25.861 27.3683 25.8648C27.8846 25.8578 27.9906 25.3413 27.8842 25.1078C27.7957 24.8842 27.5899 24.6136 27.3007 24.3785C27.0336 24.1886 27.1781 23.9899 27.3517 23.9947C29.0089 24.0891 30.5931 24.3759 31.1906 26.365C31.2135 26.4395 31.254 26.6908 31.3173 26.7847C31.4456 26.975 31.6687 27.1178 31.9145 27.3321C32.5159 27.8565 33.0556 28.7915 31.2268 31.6325ZM33.3794 30.4025C33.6704 29.7939 34.0656 30.2021 34.254 30.8702C34.4935 31.7189 34.5279 33.0844 34.4269 33.7886C34.2952 34.7072 33.8633 34.5232 33.6323 34.1966C33.2675 33.6806 32.8727 32.9938 32.5976 32.5225C32.5892 32.5083 32.5813 32.4937 32.5741 32.4786C32.4462 32.2137 32.427 32.0037 32.561 31.8069C32.6989 31.5954 33.2456 30.6823 33.3794 30.4025Z" fill="var(--fill-0, white)"/>
</g>
</svg>
