<svg width="120" height="60" viewBox="0 0 120 60" fill="none" xmlns="http://www.w3.org/2000/svg">
<g clip-path="url(#clip0_25_1172)">
<path d="M18 25.6761C18 22.889 19.7138 21.0061 22.9531 21.0061H43.9816V24.9591H23.585C23.0138 24.9591 22.5063 25.2563 22.5063 26.1282V32.7198C22.5063 33.5208 22.8382 34.0375 23.8818 34.0375H38.2466C39.0029 34.0375 39.587 33.7662 39.587 32.7586V31.2149H31.1775V27.4491H43.9816V33.5079C43.9816 36.408 41.8976 37.9938 38.6231 37.9938H22.9882C19.8255 37.9938 18.0032 36.2595 18.0032 33.3593L18 25.6761ZM62.7409 37.9938L69.9249 25.1109V37.9938H74.428V21.0061H67.5026L60.6537 33.2075L53.8049 21.0061H46.8826V37.9938H51.3857V25.1109L58.5697 37.9938H62.7409ZM101 37.9938H82.1705C79.0014 37.9938 77.1854 36.2595 77.1854 33.3593V25.6761C77.1854 22.889 78.8928 21.0061 82.1322 21.0061H101.003V25.2756H82.7673C82.196 25.2756 81.6854 25.5695 81.6854 26.4415V32.4033C81.6854 33.2075 82.0205 33.721 83.0641 33.721H101.003L101 37.9938Z" fill="white"/>
</g>
<defs>
<clipPath id="clip0_25_1172">
<rect width="83" height="17" fill="white" transform="translate(18 21)"/>
</clipPath>
</defs>
</svg>
